<svg width="260" height="226" viewBox="0 0 260 226" fill="none" xmlns="http://www.w3.org/2000/svg">
<path opacity="0.15" fill-rule="evenodd" clip-rule="evenodd" d="M243.183 180.403C242.56 180.326 234.28 185.36 234.28 185.36C234.123 185.593 233.932 185.819 233.71 186.042C231.224 185.836 228.584 185.638 225.8 185.448C220.404 182.925 213.333 181.395 205.591 181.395C199.819 181.395 194.42 182.245 189.809 183.724C171.868 183.142 151.466 182.813 129.827 182.813C58.1255 182.813 0 186.426 0 190.883C0 195.339 58.1255 198.952 129.827 198.952C133.446 198.952 137.031 198.943 140.575 198.925C136.655 201.699 134.366 205.048 134.366 208.654C134.366 218.234 150.531 226 170.473 226C184.232 226 196.194 222.303 202.289 216.863V218.132C202.289 218.406 202.44 218.68 202.895 218.954C203.653 219.365 205.017 219.365 205.926 218.954L210.171 216.762L215.476 219.913C217.598 221.009 231.24 215.529 246.246 207.721C259.325 200.967 259.522 198.502 259.508 196.153C259.59 196.011 259.633 195.882 259.633 195.768V192.298C259.633 192.1 259.454 191.809 259.239 191.532C259.514 191.318 259.654 191.101 259.654 190.883C259.654 190.519 259.267 190.16 258.516 189.809V187.838C258.516 186.847 258.022 184.864 256.538 184.368C255.054 183.873 254.065 183.377 254.065 183.377L253.57 182.881C253.57 182.881 252.581 181.395 250.108 181.395H246.151C246.151 181.395 243.806 180.481 243.183 180.403ZM231.557 206.456L235.167 207.355C225.04 212.036 217.088 214.835 215.627 214.023L214.482 213.407C221.623 212.256 227.663 209.753 231.557 206.456Z" fill="black"/>
<path d="M210.522 89.3262H210.282H43.6616H43.4216H43.2415V186.997H210.702V89.3262H210.522Z" fill="#FFD05B"/>
<path d="M142.818 140.373L142.577 140.194L126.972 151.91L111.546 140.373L111.366 140.194L42.5812 186.997H211.362L142.818 140.373Z" fill="#F9B54C"/>
<path d="M127.152 20.2271H126.972L43.0014 89.3261L126.732 152.567H126.972L210.702 89.5054L210.942 89.3261L127.152 20.2271Z" fill="#F9B54C"/>
<path d="M160.284 36.6052H69.591V109.291L126.732 152.567H126.972L184.113 109.47L184.353 109.291V58.8413L160.284 36.6052Z" fill="white"/>
<path d="M160.284 58.8413H184.353L160.284 36.6052V58.8413Z" fill="#ACB3BA"/>
<path d="M172.288 66.6118H138.976V70.796H172.288V66.6118Z" fill="#CED5E0"/>
<path d="M172.288 80.4795H138.976V84.6637H172.288V80.4795Z" fill="#CED5E0"/>
<path d="M172.288 94.1677H79.9148V98.3519H172.288V94.1677Z" fill="#CED5E0"/>
<path d="M172.288 107.796H79.9148V111.981H172.288V107.796Z" fill="#CED5E0"/>
<path d="M130.333 66.6716H79.8547V86.3374H130.333V66.6716Z" fill="#CED5E0"/>
<path d="M229.369 24.232L233.75 19.45L232.79 16.9993C232.79 16.9993 229.969 17.4177 229.849 17.6568C229.789 17.8959 229.549 21.0639 229.489 21.6617C229.549 22.1399 229.369 24.232 229.369 24.232Z" fill="#5C546A"/>
<path d="M250.977 0.143001C250.857 0.023452 250.617 -0.036325 250.436 0.0234493L220.726 11.0219C220.546 11.0817 220.426 11.261 220.426 11.4403C220.426 11.6197 220.546 11.799 220.726 11.9185L226.068 14.3693C226.488 14.5486 226.788 14.967 226.848 15.3854L228.589 23.9929C228.649 24.1723 228.769 24.3516 229.009 24.3516C229.189 24.3516 229.429 24.2918 229.489 24.1125L232.19 19.0914C232.25 18.9719 232.37 18.8523 232.55 18.8523C232.73 18.8523 232.85 18.9121 232.97 18.9719L239.753 26.1448C239.873 26.2644 239.993 26.3241 240.113 26.3241H240.173C240.353 26.3241 240.473 26.2046 240.533 26.0253L251.097 0.68097C251.157 0.501647 251.097 0.262549 250.977 0.143001Z" fill="#B9BBC1"/>
<path d="M250.737 0.0234375L226.488 14.6681C226.668 14.8475 226.788 15.0866 226.848 15.3854L228.589 23.9929C228.649 24.1722 228.769 24.3516 229.009 24.3516C229.189 24.3516 229.429 24.2918 229.489 24.1125L232.19 19.0914C232.19 19.0317 232.25 19.0317 232.25 19.0317L250.917 0.202762C250.917 0.0832136 250.857 0.0234375 250.737 0.0234375Z" fill="#8B8996"/>
<path fill-rule="evenodd" clip-rule="evenodd" d="M37.7795 113.415L38.7998 112.638C38.3797 112.1 37.9595 111.502 37.5394 110.964L36.519 111.741C36.9392 112.279 37.3593 112.877 37.7795 113.415Z" fill="#3C415E"/>
<path fill-rule="evenodd" clip-rule="evenodd" d="M40.1803 116.404L41.1407 115.567C40.6605 115.029 40.2404 114.491 39.8202 113.953L38.7998 114.73C39.28 115.328 39.7602 115.866 40.1803 116.404Z" fill="#3C415E"/>
<path fill-rule="evenodd" clip-rule="evenodd" d="M42.7012 119.273L43.6616 118.436C43.1814 117.898 42.7012 117.42 42.2811 116.882L41.3207 117.719C41.7409 118.257 42.2211 118.735 42.7012 119.273Z" fill="#3C415E"/>
<path fill-rule="evenodd" clip-rule="evenodd" d="M31.2371 103.971L32.3175 103.313L31.7773 102.417L31.2371 101.46L30.0967 102.118L30.6369 103.014L31.2371 103.971Z" fill="#3C415E"/>
<path fill-rule="evenodd" clip-rule="evenodd" d="M33.2778 107.198L34.3582 106.481C34.1782 106.182 33.9381 105.883 33.758 105.585C33.5779 105.286 33.3979 104.987 33.1578 104.688L32.0774 105.345C32.2575 105.644 32.4375 105.943 32.6776 106.242C32.9177 106.601 33.0978 106.9 33.2778 107.198Z" fill="#3C415E"/>
<path fill-rule="evenodd" clip-rule="evenodd" d="M35.4986 110.307L36.519 109.59C36.0989 108.992 35.6787 108.454 35.3186 107.856L34.2982 108.573C34.6583 109.171 35.0785 109.769 35.4986 110.307Z" fill="#3C415E"/>
<path fill-rule="evenodd" clip-rule="evenodd" d="M25.7752 93.8092L26.9756 93.2712L26.4954 92.3148L26.0753 91.3584L24.9348 91.8366L25.355 92.8528L25.7752 93.8092Z" fill="#3C415E"/>
<path fill-rule="evenodd" clip-rule="evenodd" d="M27.4558 97.2761L28.5962 96.6784C28.2961 96.0209 27.9359 95.4231 27.6358 94.7656L26.4954 95.3036C26.7955 95.9611 27.1557 96.6186 27.4558 97.2761Z" fill="#3C415E"/>
<path fill-rule="evenodd" clip-rule="evenodd" d="M29.2564 100.623L30.3368 100.026C30.1567 99.7267 29.9767 99.4279 29.7966 99.129L29.3164 98.1726L28.176 98.7703L28.7162 99.7267C28.8963 100.026 29.0764 100.324 29.2564 100.623Z" fill="#3C415E"/>
<path fill-rule="evenodd" clip-rule="evenodd" d="M21.8737 82.9901L23.0742 82.6912L22.8341 81.6751C22.774 81.3164 22.654 81.0176 22.594 80.6589L21.3335 80.9578C21.3935 81.3165 21.5136 81.6751 21.5736 81.974L21.8737 82.9901Z" fill="#3C415E"/>
<path fill-rule="evenodd" clip-rule="evenodd" d="M22.9541 86.6363L24.1545 86.2179C24.0345 85.8592 23.9144 85.5603 23.8544 85.2017L23.5543 84.1855L22.3539 84.5442L22.654 85.5603C22.774 85.9788 22.8341 86.3374 22.9541 86.6363Z" fill="#3C415E"/>
<path fill-rule="evenodd" clip-rule="evenodd" d="M24.2746 90.2227L25.475 89.7445C25.2349 89.087 24.9948 88.4295 24.7548 87.772L23.5543 88.1904C23.7944 88.9077 24.0345 89.5652 24.2746 90.2227Z" fill="#3C415E"/>
<path fill-rule="evenodd" clip-rule="evenodd" d="M20.0731 71.573L21.3335 71.5133V70.4971V69.4211H20.0731V70.4971V71.573Z" fill="#3C415E"/>
<path fill-rule="evenodd" clip-rule="evenodd" d="M20.3727 75.3987L21.6332 75.2193L21.5131 74.2032C21.4531 73.8445 21.4531 73.4859 21.4531 73.187L20.1927 73.3066C20.2527 73.6652 20.2527 74.0238 20.2527 74.3825L20.3727 75.3987Z" fill="#3C415E"/>
<path fill-rule="evenodd" clip-rule="evenodd" d="M20.9734 79.1644L22.2338 78.9253L22.0538 77.9092C21.9938 77.7299 21.9938 77.5505 21.9337 77.3712L21.8737 76.8333L20.6133 77.0126L20.6733 77.5505C20.6733 77.7299 20.7333 77.9092 20.7933 78.0885L20.9734 79.1644Z" fill="#3C415E"/>
<path fill-rule="evenodd" clip-rule="evenodd" d="M21.2135 60.0965L22.4139 60.3954L22.534 59.8574L22.654 59.3792L22.9541 58.363L21.7537 58.0044L21.4536 59.0206L21.3335 59.5585L21.2135 60.0965Z" fill="#3C415E"/>
<path fill-rule="evenodd" clip-rule="evenodd" d="M20.4932 63.8624L21.7537 64.0417C21.8137 63.3244 21.9938 62.6669 22.1138 62.0094L20.8534 61.7703C20.6733 62.4278 20.5532 63.1451 20.4932 63.8624Z" fill="#3C415E"/>
<path fill-rule="evenodd" clip-rule="evenodd" d="M20.1329 67.6878L21.3933 67.7476V67.2096V66.9705L21.4534 66.7314L21.5134 65.6554L20.2529 65.5359L20.1929 66.6118L20.1329 66.9107V67.1498V67.6878Z" fill="#3C415E"/>
<path fill-rule="evenodd" clip-rule="evenodd" d="M25.535 49.397L26.6154 50.0545L26.8555 49.5763C26.9155 49.397 27.0356 49.2774 27.0956 49.1579L27.6358 48.2612L26.5554 47.5439L25.9552 48.4406C25.8351 48.5601 25.7751 48.7394 25.6551 48.9188L25.535 49.397Z" fill="#3C415E"/>
<path fill-rule="evenodd" clip-rule="evenodd" d="M23.7344 52.8041L24.8748 53.3421L25.1149 52.8639C25.1749 52.6846 25.295 52.565 25.355 52.3857L25.8352 51.4293L24.6948 50.8315L24.2146 51.7879C24.1546 51.9673 24.0345 52.0868 23.9745 52.2661L23.7344 52.8041Z" fill="#3C415E"/>
<path fill-rule="evenodd" clip-rule="evenodd" d="M22.2939 56.3307L23.4943 56.7491L23.6744 56.2709L23.8545 55.7927L24.2146 54.8363L23.0742 54.3582L22.654 55.3145L22.4739 55.8525L22.2939 56.3307Z" fill="#3C415E"/>
<path fill-rule="evenodd" clip-rule="evenodd" d="M32.5576 40.2514L33.5179 41.0882L33.8781 40.7296L34.2382 40.3709L35.0185 39.6537L34.1181 38.6973L33.3379 39.4743L32.9777 39.833L32.5576 40.2514Z" fill="#3C415E"/>
<path fill-rule="evenodd" clip-rule="evenodd" d="M29.9767 43.0607L30.937 43.8976C31.4172 43.3596 31.8373 42.8216 32.3175 42.3434L31.3572 41.5066C30.937 41.9848 30.4568 42.5227 29.9767 43.0607Z" fill="#3C415E"/>
<path fill-rule="evenodd" clip-rule="evenodd" d="M27.6358 46.1092L28.6562 46.8265L29.2564 45.9896C29.3764 45.8701 29.4365 45.6908 29.5565 45.5712L29.8566 45.1528L28.8362 44.3757L28.4761 44.7942C28.3561 44.9137 28.236 45.093 28.176 45.2126L27.6358 46.1092Z" fill="#3C415E"/>
<path fill-rule="evenodd" clip-rule="evenodd" d="M41.4408 32.7797L42.1611 33.7959C42.4612 33.6166 42.7613 33.3775 43.0014 33.1981C43.3015 33.0188 43.6016 32.8395 43.9017 32.6602L43.2414 31.5842C42.9413 31.7636 42.6412 31.9429 42.3411 32.182C42.041 32.3613 41.7409 32.6004 41.4408 32.7797Z" fill="#3C415E"/>
<path fill-rule="evenodd" clip-rule="evenodd" d="M38.3196 35.1109L39.0999 36.1271C39.34 35.888 39.6401 35.7087 39.9402 35.4696L40.7805 34.8121L40.0003 33.7959L39.1599 34.4534C38.9199 34.6327 38.6198 34.8718 38.3196 35.1109Z" fill="#3C415E"/>
<path fill-rule="evenodd" clip-rule="evenodd" d="M35.3786 37.5615L36.2189 38.5179L36.9992 37.8006L37.4193 37.442L37.8395 37.1431L36.9992 36.127L36.579 36.4856L36.2189 36.8442L35.3786 37.5615Z" fill="#3C415E"/>
<path fill-rule="evenodd" clip-rule="evenodd" d="M51.9446 27.9379L52.2447 29.1333L52.7249 29.0138L53.205 28.8942C53.5652 28.8345 53.8653 28.7149 54.2254 28.6552L53.9853 27.3999C53.6252 27.4597 53.2651 27.5195 52.9049 27.639L52.3647 27.7585L51.9446 27.9379Z" fill="#3C415E"/>
<path fill-rule="evenodd" clip-rule="evenodd" d="M48.2833 29.1333L48.7634 30.3288C49.0635 30.2093 49.4237 30.0897 49.7238 29.9702C50.0239 29.8506 50.384 29.7311 50.6841 29.6115L50.324 28.416C49.9639 28.5356 49.6638 28.6551 49.3036 28.7747C48.9435 28.8344 48.5834 29.0138 48.2833 29.1333Z" fill="#3C415E"/>
<path fill-rule="evenodd" clip-rule="evenodd" d="M44.742 30.7472L45.3422 31.8829C45.9424 31.5242 46.6027 31.2254 47.2029 30.9265L46.6627 29.7908C46.0625 30.0896 45.4022 30.3885 44.742 30.7472Z" fill="#3C415E"/>
<path fill-rule="evenodd" clip-rule="evenodd" d="M63.5288 26.9219L63.4688 28.1771L64.4892 28.2369C64.8493 28.2369 65.2094 28.2967 65.5095 28.3565L65.6296 27.1012C65.2694 27.0414 64.9093 27.0414 64.5492 26.9817L63.5288 26.9219Z" fill="#3C415E"/>
<path fill-rule="evenodd" clip-rule="evenodd" d="M59.6274 26.862L59.6874 28.1173C60.4077 28.1173 61.0679 28.1173 61.7882 28.1173L61.8482 26.862C61.0679 26.8022 60.3476 26.862 59.6274 26.862Z" fill="#3C415E"/>
<path fill-rule="evenodd" clip-rule="evenodd" d="M55.786 27.1617L55.9661 28.417C56.3262 28.3572 56.6263 28.3572 56.9865 28.2974C57.1665 28.2974 57.3466 28.2376 57.5266 28.2376L58.0668 28.1779L57.9468 26.9226L57.4066 26.9824C57.2265 26.9824 57.0465 27.0422 56.8664 27.0422C56.5063 27.1019 56.1461 27.1019 55.786 27.1617Z" fill="#3C415E"/>
<path fill-rule="evenodd" clip-rule="evenodd" d="M74.8729 28.9541L74.5128 30.1496C75.173 30.3289 75.8933 30.5082 76.5535 30.7473L76.9137 29.5518C76.2534 29.3725 75.5932 29.1334 74.8729 28.9541Z" fill="#3C415E"/>
<path fill-rule="evenodd" clip-rule="evenodd" d="M71.1516 28.0574L70.8515 29.3126C71.5117 29.492 72.232 29.6115 72.8922 29.7908L73.1923 28.5953C72.5321 28.3562 71.8718 28.1769 71.1516 28.0574Z" fill="#3C415E"/>
<path fill-rule="evenodd" clip-rule="evenodd" d="M67.3702 27.3401L67.1902 28.5953L68.2105 28.7747C68.5706 28.8344 68.8707 28.8942 69.2309 28.954L69.471 27.6987C69.1108 27.639 68.7507 27.5792 68.3906 27.5194L67.3702 27.3401Z" fill="#3C415E"/>
<path fill-rule="evenodd" clip-rule="evenodd" d="M85.7969 32.72L85.3167 33.9155C85.977 34.1546 86.6372 34.4534 87.2974 34.6925L87.7776 33.497C87.1174 33.2579 86.4571 33.0188 85.7969 32.72Z" fill="#3C415E"/>
<path fill-rule="evenodd" clip-rule="evenodd" d="M82.2556 31.345L81.8354 32.5405C82.4957 32.7796 83.1559 33.0186 83.8161 33.3175L84.2963 32.122C83.5761 31.8232 82.9158 31.5841 82.2556 31.345Z" fill="#3C415E"/>
<path fill-rule="evenodd" clip-rule="evenodd" d="M78.5943 30.0898L78.1741 31.2853C78.5342 31.4049 78.8344 31.5244 79.1945 31.644C79.5546 31.7635 79.8547 31.8831 80.2149 32.0026L80.635 30.8071C80.2749 30.6876 79.9748 30.568 79.6146 30.4485C79.3145 30.3289 78.9544 30.2094 78.5943 30.0898Z" fill="#3C415E"/>
<path fill-rule="evenodd" clip-rule="evenodd" d="M96.3607 37.3225L95.8205 38.4582L97.8012 39.3548L98.3414 38.2191L96.3607 37.3225Z" fill="#3C415E"/>
<path fill-rule="evenodd" clip-rule="evenodd" d="M92.8795 35.7683L92.3393 36.904L94.32 37.7409L94.8602 36.6051L92.8795 35.7683Z" fill="#3C415E"/>
<path fill-rule="evenodd" clip-rule="evenodd" d="M89.3982 34.2141L88.918 35.3498C89.5783 35.6487 90.2385 35.8878 90.8987 36.1867L91.4389 35.051C90.7187 34.7521 90.0584 34.513 89.3982 34.2141Z" fill="#3C415E"/>
<path d="M106.766 42.1938L106.225 43.3274L108.176 44.2516L108.718 43.118L106.766 42.1938Z" fill="#3C415E"/>
<path d="M103.317 40.5962L102.775 41.7295L104.726 42.6548L105.268 41.5215L103.317 40.5962Z" fill="#3C415E"/>
<path fill-rule="evenodd" clip-rule="evenodd" d="M99.902 38.9363L99.3018 40.072L101.282 41.0284L101.823 39.8927L99.902 38.9363Z" fill="#3C415E"/>
<path fill-rule="evenodd" clip-rule="evenodd" d="M117.188 47.0657L116.708 48.2014L118.629 49.098L119.169 47.9025L117.188 47.0657Z" fill="#3C415E"/>
<path fill-rule="evenodd" clip-rule="evenodd" d="M113.707 45.4519L113.167 46.6474L115.148 47.4842L115.688 46.3485L113.707 45.4519Z" fill="#3C415E"/>
<path fill-rule="evenodd" clip-rule="evenodd" d="M110.286 43.8977L109.746 45.0334L111.666 45.93L112.206 44.7943L110.286 43.8977Z" fill="#3C415E"/>
<path fill-rule="evenodd" clip-rule="evenodd" d="M127.812 51.489L127.332 52.6845C127.992 52.9236 128.652 53.1627 129.313 53.4616L129.733 52.2661C129.133 51.9672 128.472 51.7281 127.812 51.489Z" fill="#3C415E"/>
<path fill-rule="evenodd" clip-rule="evenodd" d="M124.271 50.0544L123.791 51.2499C124.451 51.5488 125.111 51.7879 125.771 52.027L126.252 50.8315C125.531 50.5924 124.871 50.3533 124.271 50.0544Z" fill="#3C415E"/>
<path fill-rule="evenodd" clip-rule="evenodd" d="M120.73 48.6199L120.249 49.7556C120.91 50.0545 121.57 50.2936 122.23 50.5924L122.71 49.4567C122.05 49.1578 121.39 48.859 120.73 48.6199Z" fill="#3C415E"/>
<path fill-rule="evenodd" clip-rule="evenodd" d="M138.676 55.1353L138.316 56.3307C139.036 56.5101 139.696 56.6894 140.417 56.8687L140.717 55.6732C139.997 55.4939 139.336 55.3146 138.676 55.1353Z" fill="#3C415E"/>
<path fill-rule="evenodd" clip-rule="evenodd" d="M135.015 53.9995L134.655 55.195C135.315 55.4341 136.035 55.6134 136.695 55.8525L137.055 54.657C136.335 54.4179 135.675 54.2386 135.015 53.9995Z" fill="#3C415E"/>
<path fill-rule="evenodd" clip-rule="evenodd" d="M131.413 52.804L130.993 53.9994C131.653 54.2385 132.374 54.4776 133.034 54.7167L133.454 53.5212C132.734 53.2821 132.074 53.0431 131.413 52.804Z" fill="#3C415E"/>
<path fill-rule="evenodd" clip-rule="evenodd" d="M149.84 57.5859L149.66 58.8412L150.74 59.0205C151.101 59.0803 151.461 59.1401 151.821 59.1401L152.001 57.8848C151.641 57.825 151.281 57.825 150.92 57.7653L149.84 57.5859Z" fill="#3C415E"/>
<path fill-rule="evenodd" clip-rule="evenodd" d="M146.059 56.9285L145.819 58.1837C146.179 58.2435 146.539 58.3033 146.899 58.3631C147.259 58.4228 147.619 58.4826 147.979 58.5424L148.219 57.2871C147.859 57.2273 147.499 57.1676 147.199 57.1078C146.779 57.048 146.419 56.9882 146.059 56.9285Z" fill="#3C415E"/>
<path fill-rule="evenodd" clip-rule="evenodd" d="M142.337 56.0916L142.037 57.3468L143.118 57.5859L144.138 57.825L144.438 56.5698L143.418 56.3306L142.337 56.0916Z" fill="#3C415E"/>
<path fill-rule="evenodd" clip-rule="evenodd" d="M161.244 58.363V59.6182C161.964 59.6182 162.685 59.5585 163.405 59.5585L163.345 58.3032C162.625 58.363 161.904 58.363 161.244 58.363Z" fill="#3C415E"/>
<path fill-rule="evenodd" clip-rule="evenodd" d="M157.403 58.3032L157.343 59.5585C158.063 59.5585 158.783 59.6182 159.504 59.6182V58.363C158.843 58.363 158.123 58.363 157.403 58.3032Z" fill="#3C415E"/>
<path fill-rule="evenodd" clip-rule="evenodd" d="M153.621 58.0642L153.501 59.3195C153.862 59.3792 154.222 59.3792 154.582 59.439L155.662 59.4988L155.722 58.2435L154.642 58.1838C154.342 58.124 153.982 58.0642 153.621 58.0642Z" fill="#3C415E"/>
<path fill-rule="evenodd" clip-rule="evenodd" d="M172.528 57.1674L172.768 58.4227C173.129 58.3629 173.489 58.3031 173.849 58.1836L174.929 57.9445L174.629 56.6892L173.609 56.9283C173.249 56.9881 172.888 57.1076 172.528 57.1674Z" fill="#3C415E"/>
<path fill-rule="evenodd" clip-rule="evenodd" d="M168.807 57.7652L168.987 59.0204L170.067 58.9009L171.148 58.7216L170.908 57.4663L169.827 57.6456L168.807 57.7652Z" fill="#3C415E"/>
<path fill-rule="evenodd" clip-rule="evenodd" d="M165.026 58.1835L165.146 59.4387L166.226 59.379L166.766 59.3192L167.306 59.2594L167.126 58.0042L166.646 58.0639L166.106 58.1237L165.026 58.1835Z" fill="#3C415E"/>
<path fill-rule="evenodd" clip-rule="evenodd" d="M183.452 53.7605L183.932 54.956C184.593 54.7169 185.253 54.3582 185.913 54.1191L185.373 52.9834C184.713 53.2225 184.112 53.5214 183.452 53.7605Z" fill="#3C415E"/>
<path fill-rule="evenodd" clip-rule="evenodd" d="M179.911 55.1353L180.271 56.3307L181.352 55.9721L182.312 55.5537L181.892 54.418L180.871 54.7766L179.911 55.1353Z" fill="#3C415E"/>
<path fill-rule="evenodd" clip-rule="evenodd" d="M176.25 56.2711L176.61 57.4666L177.63 57.1677L178.17 56.9884L178.711 56.8688L178.29 55.6733L177.81 55.7929L177.27 55.9722L176.25 56.2711Z" fill="#3C415E"/>
<path fill-rule="evenodd" clip-rule="evenodd" d="M193.536 48.5002L194.196 49.5761C194.496 49.3968 194.796 49.2175 195.096 48.9784L195.997 48.3806L195.277 47.3047L194.376 47.9024C194.136 48.1415 193.836 48.3209 193.536 48.5002Z" fill="#3C415E"/>
<path fill-rule="evenodd" clip-rule="evenodd" d="M190.295 50.4129L190.895 51.4888C191.195 51.3095 191.495 51.1301 191.855 50.9508L192.816 50.4129L192.155 49.3369L191.255 49.8749C190.895 50.114 190.595 50.2933 190.295 50.4129Z" fill="#3C415E"/>
<path fill-rule="evenodd" clip-rule="evenodd" d="M186.934 52.2061L187.474 53.3419L187.954 53.1028L188.434 52.8637L189.394 52.3257L188.794 51.2498L187.894 51.728L187.414 51.9671L186.934 52.2061Z" fill="#3C415E"/>
<path fill-rule="evenodd" clip-rule="evenodd" d="M202.719 41.7457L203.56 42.7021C204.1 42.2239 204.64 41.8054 205.18 41.3272L204.34 40.3708C203.8 40.7893 203.259 41.2675 202.719 41.7457Z" fill="#3C415E"/>
<path fill-rule="evenodd" clip-rule="evenodd" d="M199.778 44.1366L200.558 45.1528C200.859 44.9137 201.159 44.7344 201.399 44.4953L202.239 43.8377L201.459 42.8813L200.618 43.5389C200.318 43.6584 200.078 43.8975 199.778 44.1366Z" fill="#3C415E"/>
<path fill-rule="evenodd" clip-rule="evenodd" d="M196.717 46.3483L197.437 47.4243L197.917 47.0656L198.338 46.7667L199.238 46.169L198.458 45.1528L197.617 45.7506L197.137 46.0494L196.717 46.3483Z" fill="#3C415E"/>
<path fill-rule="evenodd" clip-rule="evenodd" d="M211.062 33.8554L211.963 34.752C212.443 34.2141 212.923 33.7359 213.403 33.1979L212.443 32.3611C212.023 32.8393 211.542 33.3772 211.062 33.8554Z" fill="#3C415E"/>
<path fill-rule="evenodd" clip-rule="evenodd" d="M208.361 36.6051L209.262 37.5018C209.502 37.2627 209.802 37.0236 210.042 36.7247L210.822 35.9476L209.922 35.051L209.202 35.8281C208.901 36.0672 208.601 36.3661 208.361 36.6051Z" fill="#3C415E"/>
<path fill-rule="evenodd" clip-rule="evenodd" d="M205.6 39.1753L206.441 40.1317C206.981 39.6535 207.521 39.1753 208.001 38.6971L207.101 37.8005C206.681 38.219 206.14 38.6971 205.6 39.1753Z" fill="#3C415E"/>
<path fill-rule="evenodd" clip-rule="evenodd" d="M218.565 25.2481L219.585 26.0252C220.005 25.4872 220.486 24.8895 220.906 24.3515L219.885 23.5745C219.465 24.1722 218.985 24.7102 218.565 25.2481Z" fill="#3C415E"/>
<path fill-rule="evenodd" clip-rule="evenodd" d="M216.164 28.1771L217.124 29.014C217.605 28.476 218.025 27.938 218.505 27.3403L217.545 26.5632C217.064 27.1012 216.584 27.6392 216.164 28.1771Z" fill="#3C415E"/>
<path fill-rule="evenodd" clip-rule="evenodd" d="M213.643 31.0463L214.604 31.8832L216.044 30.2693L215.084 29.4922L213.643 31.0463Z" fill="#3C415E"/>
<path fill-rule="evenodd" clip-rule="evenodd" d="M225.407 16.1026L226.488 16.8199L227.688 15.0864L226.608 14.3691L225.407 16.1026Z" fill="#3C415E"/>
<path fill-rule="evenodd" clip-rule="evenodd" d="M223.187 19.2107L224.207 19.928C224.447 19.6292 224.627 19.3303 224.867 19.0912L225.467 18.1946L224.447 17.4773L223.847 18.3141C223.607 18.613 223.427 18.9119 223.187 19.2107Z" fill="#3C415E"/>
<path fill-rule="evenodd" clip-rule="evenodd" d="M220.906 22.2593L221.926 23.0364C222.346 22.4387 222.766 21.9007 223.247 21.3029L222.226 20.5259C221.806 21.1236 221.386 21.6616 220.906 22.2593Z" fill="#3C415E"/>
<g clip-path="url(#clip0)">
<path d="M224.387 186.623V190.689C224.387 192.878 222.723 195.067 219.514 196.735C212.978 200.071 202.281 200.071 195.744 196.735C192.417 195.067 190.753 192.878 190.753 190.689C190.753 190.585 190.753 190.585 190.753 190.48V186.623H224.387Z" fill="#3B3B3B"/>
<path d="M224.387 155.559V186.936C224.387 188.5 223.555 189.959 221.891 191.314C221.178 191.836 220.346 192.461 219.395 192.878C218.92 193.086 218.563 193.295 218.088 193.503C217.256 193.816 216.424 194.129 215.592 194.337C214.404 194.65 213.096 194.963 211.789 195.067C210.957 195.171 210.125 195.276 209.293 195.276C207.986 195.38 206.797 195.38 205.49 195.276C204.658 195.171 203.826 195.171 202.994 195.067C201.687 194.859 200.379 194.65 199.191 194.337C198.359 194.129 197.527 193.816 196.695 193.503C196.22 193.295 195.863 193.086 195.388 192.878C194.437 192.357 193.605 191.836 192.892 191.314C191.228 189.959 190.515 188.396 190.515 186.936C190.515 186.832 190.515 186.832 190.515 186.728V155.559H224.387Z" fill="#49AF91"/>
<path d="M193.249 155.559V191.314C191.585 189.959 190.872 188.396 190.872 186.936C190.872 186.832 190.872 186.832 190.872 186.728V155.559H193.249Z" fill="#3A8F89"/>
<path d="M199.429 155.559V194.337C198.597 194.129 197.765 193.816 196.933 193.503V155.559H199.429Z" fill="#3A8F89"/>
<path d="M205.728 155.559V195.38C204.896 195.276 204.064 195.276 203.232 195.171V155.559H205.728Z" fill="#3A8F89"/>
<path d="M211.908 155.559V195.067C211.076 195.171 210.244 195.276 209.412 195.276V155.559H211.908Z" fill="#3A8F89"/>
<path d="M218.207 155.559V193.503C217.375 193.816 216.543 194.129 215.711 194.337V155.559H218.207Z" fill="#3A8F89"/>
<path d="M224.387 155.559V186.936C224.387 188.5 223.555 189.959 221.891 191.314V155.559H224.387Z" fill="#3A8F89"/>
<path d="M224.387 151.285V155.35C224.387 157.539 222.723 159.728 219.514 161.396C212.978 164.732 202.281 164.732 195.744 161.396C192.417 159.728 190.753 157.539 190.753 155.35C190.753 155.246 190.753 155.246 190.753 155.142V151.285H224.387Z" fill="#3B3B3B"/>
<path d="M219.514 157.331C212.977 160.667 202.28 160.667 195.744 157.331C189.207 153.995 189.207 148.574 195.744 145.239C202.28 141.903 212.977 141.903 219.514 145.239C226.05 148.574 226.05 153.995 219.514 157.331Z" fill="#575757"/>
<path d="M214.404 154.725C210.601 156.601 204.539 156.601 200.736 154.725C196.933 152.848 196.933 149.721 200.736 147.845C204.539 145.968 210.601 145.968 214.404 147.845C218.207 149.721 218.207 152.848 214.404 154.725Z" fill="#303030"/>
</g>
<g clip-path="url(#clip1)">
<path d="M200.645 202.684V204.895C200.645 208.789 197.832 212.579 192.09 215.631C180.721 221.526 162.204 221.526 150.835 215.631C145.092 212.684 142.28 208.789 142.28 204.895V202.684H148.726C148.726 205.737 150.952 208.684 155.406 211C164.313 215.631 178.729 215.631 187.636 211C192.09 208.684 194.316 205.631 194.316 202.684H200.645Z" fill="#4A4A4A"/>
<path d="M200.645 189.632V202.263C200.645 203.737 200.176 205.211 199.356 206.684C198.653 207.947 197.598 209.105 196.192 210.263C195.84 210.579 195.371 210.895 194.902 211.211C194.082 211.842 193.027 212.368 191.972 213C191.855 213 191.855 213.105 191.738 213.105C191.269 213.316 190.918 213.526 190.449 213.737C189.394 214.158 188.456 214.579 187.284 215C186.816 215.105 186.464 215.316 185.995 215.421C184.94 215.737 183.886 215.947 182.831 216.263C182.362 216.368 182.01 216.474 181.542 216.474C180.487 216.684 179.432 216.895 178.377 217C177.908 217.105 177.557 217.105 177.088 217.105C176.033 217.211 174.978 217.316 173.924 217.316C173.455 217.316 173.103 217.316 172.634 217.316C171.58 217.316 170.525 217.316 169.47 217.316C169.001 217.316 168.65 217.316 168.181 217.316C167.126 217.211 166.071 217.211 165.016 217.105C164.548 217.105 164.196 217 163.727 217C162.672 216.895 161.618 216.684 160.563 216.474C160.094 216.368 159.742 216.263 159.274 216.263C158.219 216.053 157.164 215.737 156.109 215.421C155.64 215.316 155.289 215.105 154.82 215C153.765 214.579 152.71 214.263 151.656 213.737C151.187 213.526 150.835 213.316 150.366 213.105C150.249 213.105 150.249 213 150.132 213C149.077 212.474 148.14 211.842 147.202 211.211C146.733 210.895 146.382 210.579 145.913 210.263C144.506 209.105 143.452 207.947 142.748 206.684C142.748 205.211 142.28 203.737 142.28 202.263V189.632H148.726C148.726 191.421 149.546 193.211 151.07 194.895C151.421 195.316 151.89 195.632 152.359 196.053C153.179 196.79 154.234 197.421 155.406 197.947H155.523C155.875 198.158 156.344 198.368 156.812 198.579C157.75 199 158.805 199.421 159.977 199.737C160.446 199.842 160.797 199.947 161.266 200.053C162.321 200.368 163.376 200.579 164.43 200.79C164.899 200.895 165.251 200.895 165.72 201C166.774 201.105 167.829 201.211 168.884 201.316C169.353 201.316 169.704 201.316 170.173 201.421C171.228 201.421 172.283 201.421 173.338 201.421C173.806 201.421 174.158 201.421 174.627 201.316C175.682 201.211 176.736 201.105 177.791 201C178.26 200.895 178.612 200.895 179.08 200.79C180.135 200.579 181.19 200.368 182.245 200.053C182.714 199.947 183.065 199.842 183.534 199.737C184.589 199.421 185.644 199 186.698 198.579C187.167 198.368 187.519 198.158 187.988 197.947C187.988 197.947 188.105 197.947 188.105 197.842C189.277 197.211 190.332 196.579 191.152 195.947C191.621 195.526 192.09 195.211 192.441 194.79C194.082 193.105 194.785 191.316 194.785 189.526H200.645V189.632Z" fill="#E69F57"/>
<path d="M143.569 189.632V206.684C142.748 205.211 142.28 203.737 142.28 202.263V189.632H143.569Z" fill="#CC8D4D"/>
<path d="M147.905 189.632V211.211C147.436 210.895 147.085 210.579 146.616 210.263V189.632H147.905Z" fill="#CC8D4D"/>
<path d="M152.359 196.053V213.737C151.89 213.526 151.538 213.316 151.07 213.105V194.895C151.421 195.316 151.89 195.632 152.359 196.053Z" fill="#CC8D4D"/>
<path d="M156.695 198.684V215.421C156.226 215.316 155.875 215.105 155.406 215V198.053C155.875 198.263 156.226 198.474 156.695 198.684Z" fill="#CC8D4D"/>
<path d="M161.149 200.158V216.368C160.68 216.263 160.328 216.158 159.86 216.158V199.842C160.211 199.947 160.68 200.053 161.149 200.158Z" fill="#CC8D4D"/>
<path d="M165.485 201.105V217.105C165.016 217.105 164.665 217 164.196 217V200.895C164.665 200.895 165.016 201 165.485 201.105Z" fill="#CC8D4D"/>
<path d="M169.822 201.421V217.421C169.353 217.421 169.001 217.421 168.532 217.421V201.421C169.001 201.421 169.47 201.421 169.822 201.421Z" fill="#CC8D4D"/>
<path d="M174.275 201.421V217.421C173.806 217.421 173.455 217.421 172.986 217.421V201.421C173.455 201.421 173.806 201.421 174.275 201.421Z" fill="#CC8D4D"/>
<path d="M178.612 200.895V217C178.143 217.105 177.791 217.105 177.322 217.105V201.105C177.791 201 178.26 200.895 178.612 200.895Z" fill="#CC8D4D"/>
<path d="M183.065 199.842V216.158C182.596 216.263 182.245 216.368 181.776 216.368V200.158C182.245 200.053 182.596 199.947 183.065 199.842Z" fill="#CC8D4D"/>
<path d="M187.402 198.053V214.895C186.933 215 186.581 215.211 186.112 215.316V198.684C186.581 198.474 187.05 198.263 187.402 198.053Z" fill="#CC8D4D"/>
<path d="M191.855 194.895V213.105C191.386 213.316 191.035 213.526 190.566 213.737V196.053C191.035 195.737 191.504 195.316 191.855 194.895Z" fill="#CC8D4D"/>
<path d="M196.192 189.632V210.263C195.84 210.579 195.371 210.895 194.902 211.211V189.632H196.192Z" fill="#CC8D4D"/>
<path d="M200.645 189.632V202.263C200.645 203.737 200.176 205.211 199.356 206.684V189.632H200.645Z" fill="#CC8D4D"/>
<path d="M200.645 187.632V189.842C200.645 193.737 197.832 197.526 192.09 200.579C180.721 206.474 162.204 206.474 150.835 200.579C145.092 197.526 142.28 193.632 142.28 189.842V187.632H148.726C148.726 190.684 150.952 193.632 155.406 195.947C164.313 200.579 178.729 200.579 187.636 195.947C192.09 193.632 194.316 190.579 194.316 187.632H200.645Z" fill="#4A4A4A"/>
<path d="M192.089 176.895C180.721 171 162.203 171 150.835 176.895C139.467 182.789 139.467 192.368 150.835 198.263C162.203 204.158 180.721 204.158 192.089 198.263C203.458 192.368 203.458 182.789 192.089 176.895ZM155.289 195.947C146.381 191.316 146.381 183.842 155.289 179.21C164.196 174.579 178.611 174.579 187.519 179.21C196.426 183.842 196.426 191.316 187.519 195.947C178.611 200.579 164.196 200.579 155.289 195.947Z" fill="#6B6B6B"/>
<path d="M189.746 178.158C179.666 172.895 163.376 172.895 153.296 178.158C145.092 182.368 143.569 188.895 148.726 193.947C148.843 194.053 148.96 194.263 149.194 194.368C149.663 194.789 150.132 195.105 150.601 195.526C150.718 195.631 150.952 195.737 151.07 195.842C151.656 196.263 152.359 196.684 153.179 197.105C163.258 202.368 179.549 202.368 189.628 197.105C190.449 196.684 191.152 196.263 191.855 195.842C191.972 195.737 192.207 195.631 192.324 195.526C192.91 195.105 193.379 194.789 193.73 194.368C193.848 194.263 194.082 194.053 194.199 193.947C199.473 188.789 197.95 182.368 189.746 178.158ZM192.324 192.263C192.207 192.474 191.972 192.579 191.855 192.789C191.504 193.105 191.152 193.526 190.683 193.842C190.566 193.947 190.332 194.158 190.214 194.263C189.394 194.895 188.574 195.421 187.519 195.947C178.612 200.579 164.196 200.579 155.289 195.947C154.234 195.421 153.414 194.895 152.593 194.263C152.359 194.158 152.242 193.947 152.124 193.842C151.656 193.526 151.304 193.105 150.952 192.789C150.835 192.579 150.601 192.474 150.484 192.263C146.85 187.947 148.491 182.789 155.289 179.21C164.196 174.579 178.612 174.684 187.519 179.21C194.316 182.789 195.957 187.947 192.324 192.263Z" fill="#4A4A4A"/>
<path d="M192.324 192.263C192.207 192.474 191.972 192.579 191.855 192.789C191.152 192.368 190.449 191.947 189.628 191.526C179.549 186.263 163.258 186.263 153.179 191.526C152.359 191.947 151.656 192.368 150.952 192.789C150.835 192.579 150.601 192.474 150.484 192.263C146.85 187.947 148.491 182.789 155.289 179.21C164.196 174.579 178.612 174.684 187.519 179.21C194.316 182.789 195.957 187.947 192.324 192.263Z" fill="#333333"/>
</g>
<g clip-path="url(#clip2)">
<path d="M245.809 186.988L244.657 187.509L245.809 186.988Z" fill="#515E70"/>
<path d="M251.109 189.697L248.113 188.134L251.339 186.467C251.454 186.363 251.57 186.259 251.685 186.154V186.05C251.685 185.946 251.8 185.946 251.8 185.842V189.28L251.339 189.489L251.109 189.697Z" fill="#515E70"/>
<path d="M253.528 190.947L256.754 189.28C256.869 189.176 256.985 189.072 257.1 188.968V188.863C257.1 188.759 257.215 188.759 257.215 188.655V192.927L256.754 192.718L253.528 190.947Z" fill="#515E70"/>
<path d="M236.361 193.552C236.246 193.655 236.246 193.655 236.361 193.552C236.246 193.655 236.246 193.655 236.361 193.552Z" fill="#515E70"/>
<path d="M212.397 210.327C211.936 210.327 211.59 210.431 211.245 210.535L210.093 211.16L211.245 210.535C211.475 210.431 211.936 210.327 212.397 210.327Z" fill="#515E70"/>
<path d="M213.895 210.952C213.895 211.055 214.009 211.055 213.895 210.952C214.009 211.055 213.895 211.055 213.895 210.952Z" fill="#515E70"/>
<path d="M236.361 191.26C236.937 190.947 237.744 190.739 238.435 190.531C237.629 190.635 236.937 190.843 236.361 191.26Z" fill="#56A0FF"/>
<path d="M235.209 191.989C235.209 191.989 235.324 191.989 235.209 191.989C235.324 191.885 235.44 191.781 235.44 191.781C235.44 191.781 235.324 191.885 235.209 191.989Z" fill="#56A0FF"/>
<path d="M236.246 191.26L236.361 191.156C236.246 191.26 236.246 191.26 236.246 191.26Z" fill="#56A0FF"/>
<path d="M234.748 192.614C234.748 192.51 234.864 192.406 234.864 192.302C234.864 192.406 234.864 192.51 234.748 192.614Z" fill="#56A0FF"/>
<path d="M248.459 198.345C248.344 198.345 248.344 198.449 248.228 198.449C248.344 198.345 248.459 198.345 248.459 198.345Z" fill="#56A0FF"/>
<path d="M246.5 199.491C246.846 199.282 247.191 199.074 247.537 198.866C247.191 199.074 246.846 199.282 246.5 199.491Z" fill="#56A0FF"/>
<path d="M245.809 199.908C245.463 200.116 245.118 200.324 244.772 200.429C245.118 200.22 245.463 200.012 245.809 199.908Z" fill="#56A0FF"/>
<path d="M242.698 201.575C243.159 201.366 243.505 201.158 243.965 200.845C243.505 201.158 243.159 201.366 242.698 201.575Z" fill="#56A0FF"/>
<path d="M244.772 200.429L244.657 200.533C244.657 200.533 244.772 200.429 244.772 200.429Z" fill="#56A0FF"/>
<path d="M228.066 202.408C228.181 202.513 228.181 202.617 228.296 202.721C228.181 202.617 228.066 202.513 228.066 202.408Z" fill="#56A0FF"/>
<path d="M228.296 203.033C228.296 203.138 228.412 203.242 228.412 203.346C228.296 203.242 228.296 203.138 228.296 203.033Z" fill="#56A0FF"/>
<path d="M257.906 191.364V191.26C257.906 191.051 257.906 190.947 257.791 190.843L257.215 190.531L256.754 190.322L253.528 188.655L252.376 189.28C251.685 189.593 250.648 189.593 250.072 189.28C249.611 189.072 249.496 188.655 249.726 188.342C249.841 188.238 249.957 188.134 250.072 188.03L251.224 187.405L248.228 185.842L247.076 186.467C246.385 186.78 245.348 186.78 244.772 186.467C244.426 186.259 244.311 186.05 244.311 185.842C244.311 185.738 244.311 185.738 244.426 185.634V185.529C244.542 185.425 244.657 185.321 244.772 185.217L245.924 184.592L241.776 182.404L234.288 186.363C234.518 187.926 230.37 191.364 224.034 194.698C217.697 198.032 211.13 200.116 208.134 200.012L200.645 203.867L204.793 206.055L205.945 205.43C206.636 205.117 207.673 205.117 208.249 205.43C208.595 205.638 208.71 205.847 208.71 206.055C208.71 206.263 208.595 206.472 208.249 206.68L207.097 207.305L210.093 208.868L211.245 208.243C211.59 208.035 211.936 208.035 212.397 208.035C212.858 208.035 213.203 208.139 213.549 208.243C213.664 208.347 213.78 208.451 213.895 208.556V208.66C213.895 208.764 214.01 208.764 214.01 208.868C214.01 209.077 213.895 209.285 213.549 209.493L212.397 210.119L216.66 212.411C218.158 213.244 228.642 209.077 240.048 203.138C240.739 202.825 241.431 202.408 242.007 202.096C242.237 201.992 242.468 201.887 242.698 201.783C243.159 201.575 243.505 201.366 243.965 201.054C244.196 200.95 244.426 200.845 244.657 200.637L244.772 200.533C245.118 200.325 245.463 200.116 245.809 200.012C246.039 199.908 246.27 199.699 246.5 199.595C246.846 199.387 247.191 199.178 247.537 198.97C247.768 198.866 247.998 198.657 248.228 198.553C248.344 198.553 248.344 198.449 248.459 198.449C248.689 198.345 248.92 198.136 249.15 198.032C249.38 197.928 249.611 197.72 249.841 197.616C250.187 197.407 250.417 197.303 250.763 197.095C250.993 196.99 251.224 196.886 251.339 196.678C251.57 196.469 251.915 196.365 252.146 196.157C252.376 196.053 252.491 195.948 252.722 195.844C252.952 195.636 253.183 195.532 253.413 195.323C253.528 195.219 253.759 195.115 253.874 195.011C254.104 194.802 254.335 194.698 254.565 194.49C254.68 194.386 254.796 194.281 255.026 194.177C255.256 193.969 255.487 193.865 255.602 193.76C255.717 193.656 255.832 193.656 255.948 193.552C256.178 193.344 256.524 193.135 256.754 192.927C256.985 192.719 257.215 192.51 257.33 192.406C257.33 192.302 257.445 192.302 257.445 192.302C257.561 192.198 257.676 192.093 257.676 191.989C257.676 191.885 257.791 191.885 257.791 191.781C257.791 191.572 257.906 191.468 257.906 191.364ZM227.49 206.263C224.494 207.826 219.54 207.826 216.429 206.263C213.434 204.701 213.434 202.096 216.429 200.533C219.425 198.97 224.379 198.97 227.375 200.533C230.485 202.096 230.485 204.701 227.49 206.263ZM246.385 190.739C249.381 192.302 249.381 194.907 246.385 196.469C243.389 198.032 238.435 198.032 235.324 196.469C232.329 194.907 232.329 192.302 235.324 190.739C238.32 189.072 243.274 189.072 246.385 190.739Z" fill="#4E92E8"/>
<path d="M251.8 183.654V183.758C251.685 183.862 251.57 183.966 251.454 184.071L248.228 185.738L247.076 186.363C246.385 186.675 245.348 186.675 244.772 186.363C244.426 186.154 244.311 185.946 244.311 185.738C244.311 185.634 244.311 185.634 244.426 185.529V185.425C244.542 185.321 244.657 185.217 244.772 185.113L245.924 184.487L249.035 182.82C249.726 182.508 250.763 182.508 251.339 182.82C251.685 183.029 251.8 183.237 251.8 183.446C251.915 183.55 251.8 183.654 251.8 183.654Z" fill="#4E92E8"/>
<path d="M257.1 186.467C257.1 186.571 257.1 186.571 257.1 186.467C256.985 186.675 256.869 186.78 256.754 186.884L253.528 188.551L252.376 189.176C251.685 189.488 250.648 189.488 250.072 189.176C249.611 188.968 249.496 188.551 249.726 188.238C249.841 188.134 249.957 188.03 250.072 187.926L251.224 187.3L251.454 187.196L251.915 186.988L254.335 185.738C255.026 185.425 256.063 185.425 256.639 185.738C256.985 185.946 257.1 186.154 257.1 186.363C257.215 186.363 257.1 186.467 257.1 186.467Z" fill="#4E92E8"/>
<path d="M246.385 190.739C243.389 189.176 238.435 189.176 235.324 190.739C232.329 192.302 232.214 194.906 235.324 196.469C238.32 198.032 243.274 198.032 246.385 196.469C249.38 194.906 249.38 192.302 246.385 190.739ZM238.435 190.53C240.739 190.009 243.505 190.322 245.348 191.26C245.924 191.572 246.385 191.989 246.731 192.406C247.076 192.823 247.191 193.239 247.191 193.656C247.191 194.49 246.5 195.323 245.348 196.053C243.505 196.99 240.739 197.303 238.435 196.782C237.629 196.574 236.937 196.365 236.361 196.053C235.785 195.74 235.324 195.323 234.979 194.906C234.864 194.698 234.748 194.49 234.633 194.281C234.518 194.073 234.518 193.865 234.518 193.656C234.518 193.552 234.518 193.448 234.633 193.344C234.633 193.239 234.633 193.135 234.633 193.031C234.633 192.927 234.748 192.823 234.864 192.718C234.864 192.614 234.979 192.51 234.979 192.406C235.094 192.302 235.209 192.197 235.324 192.093C235.324 191.885 235.44 191.781 235.44 191.781C235.67 191.572 235.901 191.468 236.246 191.26C236.937 190.843 237.629 190.635 238.435 190.53Z" fill="#75B1FF"/>
<path d="M227.49 200.533C224.494 198.97 219.54 198.97 216.545 200.533C213.549 202.096 213.434 204.701 216.545 206.264C219.54 207.826 224.494 207.826 227.605 206.264C230.485 204.701 230.485 202.096 227.49 200.533ZM227.951 202.096C228.066 202.2 228.066 202.304 228.066 202.304C228.181 202.408 228.181 202.513 228.296 202.617C228.296 202.721 228.296 202.825 228.296 202.929C228.296 203.034 228.412 203.138 228.412 203.242C228.412 203.659 228.296 204.076 227.951 204.492C227.605 204.909 227.144 205.222 226.568 205.638C224.034 206.993 220.001 206.993 217.582 205.638C215.047 204.284 215.162 202.2 217.582 200.95C220.116 199.699 224.034 199.699 226.568 200.95C227.144 201.367 227.605 201.783 227.951 202.096Z" fill="#75B1FF"/>
<path d="M208.249 205.43C208.595 205.638 208.71 205.847 208.71 206.055C208.71 206.264 208.595 206.472 208.249 206.68L207.097 207.305L203.871 208.972C203.18 209.285 202.143 209.285 201.567 208.972C201.452 208.868 201.336 208.764 201.221 208.66V208.556V208.452C201.106 208.243 201.336 207.931 201.682 207.722L204.908 206.055L206.06 205.43C206.521 205.117 207.558 205.117 208.249 205.43Z" fill="#4E92E8"/>
<path d="M210.093 208.764L211.245 208.139C211.59 207.93 211.936 207.93 212.397 207.93C212.858 207.93 213.203 208.035 213.549 208.139C213.664 208.243 213.78 208.347 213.895 208.451V208.556C213.895 208.66 214.01 208.66 214.01 208.764C214.01 208.972 213.895 209.181 213.549 209.389L212.397 210.014L209.171 211.681C208.48 211.994 207.443 211.994 206.867 211.681C206.636 211.681 206.521 211.577 206.406 211.473V211.369C206.291 211.056 206.406 210.744 206.867 210.535L207.097 210.431L210.093 208.764Z" fill="#4E92E8"/>
<path d="M245.809 184.592L244.657 185.113L245.809 184.592Z" fill="#4682CF"/>
<path d="M251.109 187.301L248.113 185.738L251.339 184.071C251.454 183.967 251.57 183.862 251.685 183.758V183.654C251.685 183.55 251.8 183.55 251.8 183.446V186.884L251.339 187.092L251.109 187.301Z" fill="#416EA8"/>
<path d="M253.528 188.551L256.754 186.884C256.869 186.78 256.985 186.676 257.1 186.571V186.467C257.1 186.363 257.215 186.363 257.215 186.259V190.531L256.754 190.322L253.528 188.551Z" fill="#416EA8"/>
<path d="M212.397 207.931C211.936 207.931 211.59 208.035 211.245 208.139L210.093 208.764L211.245 208.139C211.475 208.035 211.936 207.931 212.397 207.931Z" fill="#4682CF"/>
<path d="M213.895 208.556C213.895 208.659 214.009 208.659 213.895 208.556C214.009 208.659 213.895 208.659 213.895 208.556Z" fill="#4682CF"/>
<path d="M245.233 195.948C243.389 196.886 240.624 197.199 238.32 196.678C237.514 196.469 236.822 196.261 236.246 195.948C235.67 195.636 235.209 195.219 234.864 194.802C234.748 194.594 234.633 194.386 234.518 194.177C234.403 193.969 234.403 193.76 234.403 193.552C234.403 193.448 234.403 193.344 234.518 193.239C234.518 193.135 234.518 193.031 234.518 192.927C234.518 192.823 234.633 192.823 234.633 192.719C234.633 192.719 234.633 192.614 234.748 192.614C234.748 192.51 234.864 192.406 234.864 192.302C234.979 192.198 235.094 192.093 235.209 191.989C235.324 191.885 235.44 191.781 235.44 191.781C235.44 191.781 235.555 191.677 235.67 191.677C235.785 191.572 236.016 191.468 236.131 191.364C236.131 191.364 236.131 191.364 236.246 191.364C236.246 191.364 236.361 191.364 236.361 191.26C236.937 190.947 237.744 190.739 238.435 190.531C240.739 190.01 243.505 190.322 245.348 191.26C245.924 191.572 246.385 191.989 246.731 192.406C247.076 192.823 247.191 193.239 247.191 193.656C247.191 194.386 246.5 195.323 245.233 195.948Z" fill="#416EA8"/>
<path d="M204.793 206.055L201.567 207.722C201.221 207.93 200.991 208.243 201.106 208.451V208.556V208.66C201.221 208.764 201.336 208.868 201.452 208.972C202.143 209.285 203.18 209.285 203.756 208.972L206.982 207.305L209.977 208.868L206.982 210.431L206.751 210.535C206.406 210.744 206.291 211.056 206.406 211.369V211.473C206.521 211.577 206.636 211.681 206.751 211.786C207.443 212.098 208.48 212.098 209.056 211.786L212.282 210.118L216.545 212.411C218.042 213.244 228.527 209.077 239.933 203.138C240.624 202.825 241.316 202.408 241.892 202.096C242.122 201.992 242.352 201.887 242.583 201.783C243.044 201.575 243.389 201.366 243.85 201.054C244.081 200.95 244.311 200.845 244.542 200.637L244.657 200.533C245.002 200.324 245.348 200.116 245.694 200.012C245.924 199.908 246.155 199.699 246.385 199.595C246.731 199.387 247.076 199.178 247.422 198.97C247.652 198.866 247.883 198.657 248.113 198.553C248.228 198.553 248.228 198.449 248.344 198.449C248.574 198.345 248.804 198.136 249.035 198.032C249.265 197.928 249.496 197.72 249.726 197.616C250.072 197.407 250.302 197.303 250.648 197.095C250.878 196.99 251.109 196.886 251.224 196.678C251.454 196.469 251.8 196.365 252.03 196.157C252.261 196.053 252.376 195.948 252.606 195.844C252.837 195.636 253.067 195.532 253.298 195.323C253.413 195.219 253.643 195.115 253.759 195.011C253.989 194.802 254.219 194.698 254.45 194.49C254.565 194.386 254.68 194.281 254.911 194.177C255.141 193.969 255.372 193.865 255.487 193.76C255.602 193.656 255.717 193.656 255.832 193.552C256.063 193.344 256.409 193.135 256.639 192.927C256.869 192.719 257.1 192.51 257.215 192.406C257.215 192.302 257.33 192.302 257.33 192.302C257.445 192.198 257.561 192.093 257.561 191.989C257.561 191.885 257.676 191.885 257.676 191.781C257.676 191.677 257.791 191.572 257.791 191.572V191.468V191.364V195.74C257.791 197.199 250.302 202.2 239.818 207.618C228.412 213.557 218.042 217.724 216.429 216.891L212.167 214.599L208.941 216.266C208.249 216.578 207.212 216.578 206.636 216.266C206.291 216.057 206.175 215.849 206.175 215.641V212.202L203.756 213.453C203.065 213.765 202.028 213.765 201.452 213.453C201.106 213.244 200.991 213.036 200.991 212.827V208.556L200.645 208.243V203.867L204.793 206.055Z" fill="#416EA8"/>
<path d="M226.453 205.743C223.918 207.097 219.886 207.097 217.466 205.743C214.932 204.388 215.047 202.304 217.466 201.054C220.001 199.804 223.918 199.804 226.453 201.054C227.029 201.367 227.49 201.783 227.836 202.2C227.951 202.304 227.951 202.408 227.951 202.408C228.066 202.513 228.066 202.617 228.181 202.721C228.181 202.825 228.181 202.929 228.181 203.034C228.181 203.138 228.296 203.242 228.296 203.346C228.296 203.763 228.181 204.18 227.836 204.596C227.605 205.013 227.144 205.43 226.453 205.743Z" fill="#416EA8"/>
</g>
<defs>
<clipPath id="clip0">
<rect width="33.6344" height="56.5" fill="white" transform="translate(190.753 142.737)"/>
</clipPath>
<clipPath id="clip1">
<rect width="58.3656" height="47.5789" fill="white" transform="translate(142.28 172.474)"/>
</clipPath>
<clipPath id="clip2">
<rect width="57.3763" height="36.6754" fill="white" transform="translate(200.645 182.404)"/>
</clipPath>
</defs>
</svg>
