<svg width="20" height="20" viewBox="0 0 20 20" fill="none" xmlns="http://www.w3.org/2000/svg">
<g clip-path="url(#clip0)">
<path d="M19.1719 15.5089C18.5764 14.7946 17.8756 14.1851 17.2126 13.5378C16.6145 12.9544 16.5767 12.6159 17.0576 11.9425C17.5824 11.2076 18.1467 10.5008 18.6763 9.76915C19.1706 9.08539 19.6759 8.4035 19.936 7.58481C20.101 7.06396 19.9551 6.8339 19.421 6.7427C19.329 6.72674 19.2338 6.72591 19.1402 6.72591L15.9713 6.72218C15.581 6.71638 15.3653 6.88654 15.2273 7.23246C15.0409 7.70005 14.8488 8.16722 14.6268 8.61843C14.1232 9.64148 13.5607 10.6303 12.772 11.4677C12.5981 11.6523 12.4058 11.8857 12.1152 11.7895C11.7517 11.6569 11.6445 11.0579 11.6505 10.8554L11.6474 7.19785C11.5769 6.67534 11.4611 6.44238 10.9423 6.34082L7.65056 6.34144C7.21117 6.34144 6.99085 6.51119 6.75623 6.78602C6.62088 6.94478 6.58005 7.04779 6.8582 7.10044C7.40454 7.20407 7.71233 7.55766 7.79399 8.10545C7.92498 8.98072 7.91586 9.85952 7.84042 10.7383C7.81824 10.9949 7.77409 11.2509 7.67233 11.4905C7.51315 11.8671 7.25614 11.9437 6.91851 11.712C6.6128 11.5023 6.39808 11.2063 6.18791 10.9091C5.39845 9.79361 4.76858 8.59066 4.25498 7.32656C4.10658 6.96136 3.85061 6.74001 3.46365 6.734C2.51294 6.71887 1.56202 6.71638 0.611308 6.73483C0.0392632 6.7456 -0.131314 7.02334 0.101649 7.54191C1.13713 9.84522 2.28972 12.0845 3.79424 14.1244C4.5667 15.1712 5.45358 16.0954 6.59933 16.7504C7.89783 17.4928 9.2956 17.7162 10.7678 17.6474C11.4571 17.6151 11.6642 17.4358 11.6961 16.7487C11.7177 16.2786 11.7709 15.8113 12.0029 15.3889C12.2304 14.9743 12.5751 14.8954 12.9724 15.1532C13.1712 15.2823 13.3387 15.4467 13.4968 15.62C13.8848 16.0444 14.2589 16.4818 14.6616 16.8919C15.1667 17.4059 15.7651 17.7096 16.5175 17.6476L19.4299 17.6482C19.8992 17.6176 20.1425 17.0422 19.873 16.5184C19.6838 16.1516 19.4355 15.8249 19.1719 15.5089Z" fill="#434F64"/>
</g>
<defs>
<clipPath id="clip0">
<rect width="20" height="20" fill="white" transform="translate(0.000244141)"/>
</clipPath>
</defs>
</svg>
